solid CATIA STL
  facet normal  0.000000e+000  7.071068e-001 -7.071068e-001
    outer loop
      vertex  3.500000e+001  3.500000e+001  1.000000e+000
      vertex  3.500000e+001  3.400000e+001  0.000000e+000
      vertex -3.400000e+001  3.500000e+001  1.000000e+000
    endloop
  endfacet
  facet normal  0.000000e+000  7.071068e-001 -7.071068e-001
    outer loop
      vertex -3.400000e+001  3.500000e+001  1.000000e+000
      vertex  3.500000e+001  3.400000e+001  0.000000e+000
      vertex -3.400000e+001  3.400000e+001  0.000000e+000
    endloop
  endfacet
  facet normal  0.000000e+000  7.071068e-001 -7.071068e-001
    outer loop
      vertex -3.400000e+001  3.500000e+001  1.000000e+000
      vertex -3.400000e+001  3.400000e+001  0.000000e+000
      vertex -3.450000e+001  3.450000e+001  5.000000e-001
    endloop
  endfacet
  facet normal -7.071068e-001  0.000000e+000 -7.071068e-001
    outer loop
      vertex -3.450000e+001  3.450000e+001  5.000000e-001
      vertex -3.400000e+001  3.400000e+001  0.000000e+000
      vertex -3.500000e+001  3.400000e+001  1.000000e+000
    endloop
  endfacet
  facet normal -7.071068e-001  0.000000e+000 -7.071068e-001
    outer loop
      vertex -3.500000e+001  3.400000e+001  1.000000e+000
      vertex -3.400000e+001  3.400000e+001  0.000000e+000
      vertex -3.500000e+001 -3.400000e+001  1.000000e+000
    endloop
  endfacet
  facet normal -7.071068e-001  0.000000e+000 -7.071068e-001
    outer loop
      vertex -3.500000e+001 -3.400000e+001  1.000000e+000
      vertex -3.400000e+001  3.400000e+001  0.000000e+000
      vertex -3.400000e+001 -3.400000e+001  0.000000e+000
    endloop
  endfacet
  facet normal -7.071068e-001  0.000000e+000 -7.071068e-001
    outer loop
      vertex -3.500000e+001 -3.400000e+001  1.000000e+000
      vertex -3.400000e+001 -3.400000e+001  0.000000e+000
      vertex -3.450000e+001 -3.450000e+001  5.000000e-001
    endloop
  endfacet
  facet normal  0.000000e+000  1.000000e+000  0.000000e+000
    outer loop
      vertex  3.313709e+000  3.500000e+001  2.700000e+001
      vertex  3.500000e+001  3.500000e+001  1.000000e+000
      vertex -3.313709e+000  3.500000e+001  2.700000e+001
    endloop
  endfacet
  facet normal  0.000000e+000  1.000000e+000  0.000000e+000
    outer loop
      vertex -3.313709e+000  3.500000e+001  2.700000e+001
      vertex  3.500000e+001  3.500000e+001  1.000000e+000
      vertex -3.400000e+001  3.500000e+001  1.000000e+000
    endloop
  endfacet
  facet normal  0.000000e+000  1.000000e+000  0.000000e+000
    outer loop
      vertex -3.313709e+000  3.500000e+001  2.700000e+001
      vertex -3.400000e+001  3.500000e+001  1.000000e+000
      vertex -8.000000e+000  3.500000e+001  3.168629e+001
    endloop
  endfacet
  facet normal  0.000000e+000  1.000000e+000  0.000000e+000
    outer loop
      vertex -3.313709e+000  3.500000e+001  4.300000e+001
      vertex -3.400000e+001  3.500000e+001  6.900000e+001
      vertex  3.313709e+000  3.500000e+001  4.300000e+001
    endloop
  endfacet
  facet normal  0.000000e+000  1.000000e+000  0.000000e+000
    outer loop
      vertex  3.313709e+000  3.500000e+001  4.300000e+001
      vertex -3.400000e+001  3.500000e+001  6.900000e+001
      vertex  3.500000e+001  3.500000e+001  6.900000e+001
    endloop
  endfacet
  facet normal  0.000000e+000  1.000000e+000  0.000000e+000
    outer loop
      vertex  3.313709e+000  3.500000e+001  4.300000e+001
      vertex  3.500000e+001  3.500000e+001  6.900000e+001
      vertex  8.000000e+000  3.500000e+001  3.831371e+001
    endloop
  endfacet
  facet normal  0.000000e+000  1.000000e+000  0.000000e+000
    outer loop
      vertex -8.000000e+000  3.500000e+001  3.168629e+001
      vertex -3.400000e+001  3.500000e+001  1.000000e+000
      vertex -8.000000e+000  3.500000e+001  3.831371e+001
    endloop
  endfacet
  facet normal  0.000000e+000  1.000000e+000  0.000000e+000
    outer loop
      vertex -8.000000e+000  3.500000e+001  3.831371e+001
      vertex -3.400000e+001  3.500000e+001  1.000000e+000
      vertex -3.400000e+001  3.500000e+001  6.900000e+001
    endloop
  endfacet
  facet normal  0.000000e+000  1.000000e+000  0.000000e+000
    outer loop
      vertex -8.000000e+000  3.500000e+001  3.831371e+001
      vertex -3.400000e+001  3.500000e+001  6.900000e+001
      vertex -3.313709e+000  3.500000e+001  4.300000e+001
    endloop
  endfacet
  facet normal  0.000000e+000  1.000000e+000  0.000000e+000
    outer loop
      vertex  8.000000e+000  3.500000e+001  3.831371e+001
      vertex  3.500000e+001  3.500000e+001  6.900000e+001
      vertex  8.000000e+000  3.500000e+001  3.168629e+001
    endloop
  endfacet
  facet normal  0.000000e+000  1.000000e+000  0.000000e+000
    outer loop
      vertex  8.000000e+000  3.500000e+001  3.168629e+001
      vertex  3.500000e+001  3.500000e+001  6.900000e+001
      vertex  3.500000e+001  3.500000e+001  1.000000e+000
    endloop
  endfacet
  facet normal  0.000000e+000  1.000000e+000  0.000000e+000
    outer loop
      vertex  8.000000e+000  3.500000e+001  3.168629e+001
      vertex  3.500000e+001  3.500000e+001  1.000000e+000
      vertex  3.313709e+000  3.500000e+001  2.700000e+001
    endloop
  endfacet
  facet normal -1.000000e+000  0.000000e+000  0.000000e+000
    outer loop
      vertex -3.500000e+001  3.396551e+000  2.680000e+001
      vertex -3.500000e+001  3.400000e+001  1.000000e+000
      vertex -3.500000e+001 -3.396551e+000  2.680000e+001
    endloop
  endfacet
  facet normal -1.000000e+000  0.000000e+000  0.000000e+000
    outer loop
      vertex -3.500000e+001 -3.396551e+000  2.680000e+001
      vertex -3.500000e+001  3.400000e+001  1.000000e+000
      vertex -3.500000e+001 -3.400000e+001  1.000000e+000
    endloop
  endfacet
  facet normal -1.000000e+000  0.000000e+000  0.000000e+000
    outer loop
      vertex -3.500000e+001 -3.396551e+000  2.680000e+001
      vertex -3.500000e+001 -3.400000e+001  1.000000e+000
      vertex -3.500000e+001 -8.200000e+000  3.160345e+001
    endloop
  endfacet
  facet normal -1.000000e+000  0.000000e+000  0.000000e+000
    outer loop
      vertex -3.500000e+001 -3.396551e+000  4.320000e+001
      vertex -3.500000e+001 -3.400000e+001  6.900000e+001
      vertex -3.500000e+001  3.396551e+000  4.320000e+001
    endloop
  endfacet
  facet normal -1.000000e+000  0.000000e+000  0.000000e+000
    outer loop
      vertex -3.500000e+001  3.396551e+000  4.320000e+001
      vertex -3.500000e+001 -3.400000e+001  6.900000e+001
      vertex -3.500000e+001  3.400000e+001  6.900000e+001
    endloop
  endfacet
  facet normal -1.000000e+000  0.000000e+000  0.000000e+000
    outer loop
      vertex -3.500000e+001  3.396551e+000  4.320000e+001
      vertex -3.500000e+001  3.400000e+001  6.900000e+001
      vertex -3.500000e+001  8.200000e+000  3.839655e+001
    endloop
  endfacet
  facet normal -1.000000e+000  0.000000e+000  0.000000e+000
    outer loop
      vertex -3.500000e+001 -8.200000e+000  3.160345e+001
      vertex -3.500000e+001 -3.400000e+001  1.000000e+000
      vertex -3.500000e+001 -8.200000e+000  3.839655e+001
    endloop
  endfacet
  facet normal -1.000000e+000  0.000000e+000  0.000000e+000
    outer loop
      vertex -3.500000e+001 -8.200000e+000  3.839655e+001
      vertex -3.500000e+001 -3.400000e+001  1.000000e+000
      vertex -3.500000e+001 -3.400000e+001  6.900000e+001
    endloop
  endfacet
  facet normal -1.000000e+000  0.000000e+000  0.000000e+000
    outer loop
      vertex -3.500000e+001 -8.200000e+000  3.839655e+001
      vertex -3.500000e+001 -3.400000e+001  6.900000e+001
      vertex -3.500000e+001 -3.396551e+000  4.320000e+001
    endloop
  endfacet
  facet normal -1.000000e+000  0.000000e+000  0.000000e+000
    outer loop
      vertex -3.500000e+001  8.200000e+000  3.839655e+001
      vertex -3.500000e+001  3.400000e+001  6.900000e+001
      vertex -3.500000e+001  8.200000e+000  3.160345e+001
    endloop
  endfacet
  facet normal -1.000000e+000  0.000000e+000  0.000000e+000
    outer loop
      vertex -3.500000e+001  8.200000e+000  3.160345e+001
      vertex -3.500000e+001  3.400000e+001  6.900000e+001
      vertex -3.500000e+001  3.400000e+001  1.000000e+000
    endloop
  endfacet
  facet normal -1.000000e+000  0.000000e+000  0.000000e+000
    outer loop
      vertex -3.500000e+001  8.200000e+000  3.160345e+001
      vertex -3.500000e+001  3.400000e+001  1.000000e+000
      vertex -3.500000e+001  3.396551e+000  2.680000e+001
    endloop
  endfacet
  facet normal -7.071068e-001  0.000000e+000  7.071068e-001
    outer loop
      vertex -3.500000e+001  3.400000e+001  6.900000e+001
      vertex -3.400000e+001  3.400000e+001  7.000000e+001
      vertex -3.450000e+001  3.450000e+001  6.950000e+001
    endloop
  endfacet
  facet normal -7.071068e-001  0.000000e+000  7.071068e-001
    outer loop
      vertex -3.400000e+001  3.400000e+001  7.000000e+001
      vertex -3.500000e+001  3.400000e+001  6.900000e+001
      vertex -3.400000e+001 -3.400000e+001  7.000000e+001
    endloop
  endfacet
  facet normal -7.071068e-001  0.000000e+000  7.071068e-001
    outer loop
      vertex -3.400000e+001 -3.400000e+001  7.000000e+001
      vertex -3.500000e+001  3.400000e+001  6.900000e+001
      vertex -3.500000e+001 -3.400000e+001  6.900000e+001
    endloop
  endfacet
  facet normal -7.071068e-001  0.000000e+000  7.071068e-001
    outer loop
      vertex -3.400000e+001 -3.400000e+001  7.000000e+001
      vertex -3.500000e+001 -3.400000e+001  6.900000e+001
      vertex -3.450000e+001 -3.450000e+001  6.950000e+001
    endloop
  endfacet
  facet normal  0.000000e+000  7.071068e-001  7.071068e-001
    outer loop
      vertex  3.500000e+001  3.400000e+001  7.000000e+001
      vertex  3.500000e+001  3.500000e+001  6.900000e+001
      vertex -3.400000e+001  3.400000e+001  7.000000e+001
    endloop
  endfacet
  facet normal  0.000000e+000  7.071068e-001  7.071068e-001
    outer loop
      vertex -3.400000e+001  3.400000e+001  7.000000e+001
      vertex  3.500000e+001  3.500000e+001  6.900000e+001
      vertex -3.400000e+001  3.500000e+001  6.900000e+001
    endloop
  endfacet
  facet normal  0.000000e+000  7.071068e-001  7.071068e-001
    outer loop
      vertex -3.400000e+001  3.400000e+001  7.000000e+001
      vertex -3.400000e+001  3.500000e+001  6.900000e+001
      vertex -3.450000e+001  3.450000e+001  6.950000e+001
    endloop
  endfacet
  facet normal -7.071068e-001  7.071068e-001  0.000000e+000
    outer loop
      vertex -3.450000e+001  3.450000e+001  5.000000e-001
      vertex -3.500000e+001  3.400000e+001  1.000000e+000
      vertex -3.400000e+001  3.500000e+001  1.000000e+000
    endloop
  endfacet
  facet normal -7.071068e-001  7.071068e-001  0.000000e+000
    outer loop
      vertex -3.400000e+001  3.500000e+001  1.000000e+000
      vertex -3.500000e+001  3.400000e+001  1.000000e+000
      vertex -3.400000e+001  3.500000e+001  6.900000e+001
    endloop
  endfacet
  facet normal -7.071068e-001  7.071068e-001  0.000000e+000
    outer loop
      vertex -3.400000e+001  3.500000e+001  6.900000e+001
      vertex -3.500000e+001  3.400000e+001  1.000000e+000
      vertex -3.500000e+001  3.400000e+001  6.900000e+001
    endloop
  endfacet
  facet normal -7.071068e-001  7.071068e-001  0.000000e+000
    outer loop
      vertex -3.400000e+001  3.500000e+001  6.900000e+001
      vertex -3.500000e+001  3.400000e+001  6.900000e+001
      vertex -3.450000e+001  3.450000e+001  6.950000e+001
    endloop
  endfacet
  facet normal  0.000000e+000  0.000000e+000 -1.000000e+000
    outer loop
      vertex  8.200000e+000  3.396551e+000  0.000000e+000
      vertex  3.500000e+001  3.400000e+001  0.000000e+000
      vertex  8.200000e+000 -3.396551e+000  0.000000e+000
    endloop
  endfacet
  facet normal  0.000000e+000  0.000000e+000 -1.000000e+000
    outer loop
      vertex  8.200000e+000 -3.396551e+000  0.000000e+000
      vertex  3.500000e+001  3.400000e+001  0.000000e+000
      vertex  3.500000e+001 -3.400000e+001  0.000000e+000
    endloop
  endfacet
  facet normal  0.000000e+000  0.000000e+000 -1.000000e+000
    outer loop
      vertex  8.200000e+000 -3.396551e+000  0.000000e+000
      vertex  3.500000e+001 -3.400000e+001  0.000000e+000
      vertex  3.396551e+000 -8.200000e+000  0.000000e+000
    endloop
  endfacet
  facet normal  0.000000e+000  0.000000e+000 -1.000000e+000
    outer loop
      vertex -8.200000e+000 -3.396551e+000  0.000000e+000
      vertex -3.400000e+001 -3.400000e+001  0.000000e+000
      vertex -8.200000e+000  3.396551e+000  0.000000e+000
    endloop
  endfacet
  facet normal  0.000000e+000  0.000000e+000 -1.000000e+000
    outer loop
      vertex -8.200000e+000  3.396551e+000  0.000000e+000
      vertex -3.400000e+001 -3.400000e+001  0.000000e+000
      vertex -3.400000e+001  3.400000e+001  0.000000e+000
    endloop
  endfacet
  facet normal  0.000000e+000  0.000000e+000 -1.000000e+000
    outer loop
      vertex -8.200000e+000  3.396551e+000  0.000000e+000
      vertex -3.400000e+001  3.400000e+001  0.000000e+000
      vertex -3.396551e+000  8.200000e+000  0.000000e+000
    endloop
  endfacet
  facet normal  0.000000e+000  0.000000e+000 -1.000000e+000
    outer loop
      vertex  3.396551e+000 -8.200000e+000  0.000000e+000
      vertex  3.500000e+001 -3.400000e+001  0.000000e+000
      vertex -3.396551e+000 -8.200000e+000  0.000000e+000
    endloop
  endfacet
  facet normal  0.000000e+000  0.000000e+000 -1.000000e+000
    outer loop
      vertex -3.396551e+000 -8.200000e+000  0.000000e+000
      vertex  3.500000e+001 -3.400000e+001  0.000000e+000
      vertex -3.400000e+001 -3.400000e+001  0.000000e+000
    endloop
  endfacet
  facet normal  0.000000e+000  0.000000e+000 -1.000000e+000
    outer loop
      vertex -3.396551e+000 -8.200000e+000  0.000000e+000
      vertex -3.400000e+001 -3.400000e+001  0.000000e+000
      vertex -8.200000e+000 -3.396551e+000  0.000000e+000
    endloop
  endfacet
  facet normal  0.000000e+000  0.000000e+000 -1.000000e+000
    outer loop
      vertex -3.396551e+000  8.200000e+000  0.000000e+000
      vertex -3.400000e+001  3.400000e+001  0.000000e+000
      vertex  3.396551e+000  8.200000e+000  0.000000e+000
    endloop
  endfacet
  facet normal  0.000000e+000  0.000000e+000 -1.000000e+000
    outer loop
      vertex  3.396551e+000  8.200000e+000  0.000000e+000
      vertex -3.400000e+001  3.400000e+001  0.000000e+000
      vertex  3.500000e+001  3.400000e+001  0.000000e+000
    endloop
  endfacet
  facet normal  0.000000e+000  0.000000e+000 -1.000000e+000
    outer loop
      vertex  3.396551e+000  8.200000e+000  0.000000e+000
      vertex  3.500000e+001  3.400000e+001  0.000000e+000
      vertex  8.200000e+000  3.396551e+000  0.000000e+000
    endloop
  endfacet
  facet normal  1.000000e+000  0.000000e+000  0.000000e+000
    outer loop
      vertex  3.500000e+001 -3.500000e+001  1.000000e+000
      vertex  3.500000e+001 -3.400000e+001  0.000000e+000
      vertex  3.500000e+001 -3.100000e+001  4.000000e+000
    endloop
  endfacet
  facet normal  1.000000e+000  0.000000e+000  0.000000e+000
    outer loop
      vertex  3.500000e+001 -3.100000e+001  4.000000e+000
      vertex  3.500000e+001 -3.400000e+001  0.000000e+000
      vertex  3.500000e+001  3.400000e+001  0.000000e+000
    endloop
  endfacet
  facet normal  1.000000e+000  0.000000e+000  0.000000e+000
    outer loop
      vertex  3.500000e+001 -3.100000e+001  4.000000e+000
      vertex  3.500000e+001  3.400000e+001  0.000000e+000
      vertex  3.500000e+001  3.100000e+001  4.000000e+000
    endloop
  endfacet
  facet normal  1.000000e+000  0.000000e+000  0.000000e+000
    outer loop
      vertex  3.500000e+001  3.100000e+001  4.000000e+000
      vertex  3.500000e+001  3.400000e+001  0.000000e+000
      vertex  3.500000e+001  3.500000e+001  1.000000e+000
    endloop
  endfacet
  facet normal  1.000000e+000  0.000000e+000  0.000000e+000
    outer loop
      vertex  3.500000e+001  3.100000e+001  4.000000e+000
      vertex  3.500000e+001  3.500000e+001  1.000000e+000
      vertex  3.500000e+001  3.100000e+001  6.600000e+001
    endloop
  endfacet
  facet normal  1.000000e+000  0.000000e+000  0.000000e+000
    outer loop
      vertex  3.500000e+001  3.100000e+001  6.600000e+001
      vertex  3.500000e+001  3.500000e+001  1.000000e+000
      vertex  3.500000e+001  3.500000e+001  6.900000e+001
    endloop
  endfacet
  facet normal  1.000000e+000  0.000000e+000  0.000000e+000
    outer loop
      vertex  3.500000e+001  3.100000e+001  6.600000e+001
      vertex  3.500000e+001  3.500000e+001  6.900000e+001
      vertex  3.500000e+001 -3.100000e+001  6.600000e+001
    endloop
  endfacet
  facet normal  1.000000e+000  0.000000e+000  0.000000e+000
    outer loop
      vertex  3.500000e+001 -3.100000e+001  6.600000e+001
      vertex  3.500000e+001  3.500000e+001  6.900000e+001
      vertex  3.500000e+001  3.400000e+001  7.000000e+001
    endloop
  endfacet
  facet normal  1.000000e+000  0.000000e+000  0.000000e+000
    outer loop
      vertex  3.500000e+001 -3.100000e+001  6.600000e+001
      vertex  3.500000e+001  3.400000e+001  7.000000e+001
      vertex  3.500000e+001 -3.500000e+001  6.900000e+001
    endloop
  endfacet
  facet normal  1.000000e+000  0.000000e+000  0.000000e+000
    outer loop
      vertex  3.500000e+001 -3.500000e+001  6.900000e+001
      vertex  3.500000e+001  3.400000e+001  7.000000e+001
      vertex  3.500000e+001 -3.400000e+001  7.000000e+001
    endloop
  endfacet
  facet normal  1.000000e+000  0.000000e+000  0.000000e+000
    outer loop
      vertex  3.500000e+001 -3.500000e+001  1.000000e+000
      vertex  3.500000e+001 -3.100000e+001  4.000000e+000
      vertex  3.500000e+001 -3.500000e+001  6.900000e+001
    endloop
  endfacet
  facet normal  1.000000e+000  0.000000e+000  0.000000e+000
    outer loop
      vertex  3.500000e+001 -3.500000e+001  6.900000e+001
      vertex  3.500000e+001 -3.100000e+001  4.000000e+000
      vertex  3.500000e+001 -3.100000e+001  6.600000e+001
    endloop
  endfacet
  facet normal  0.000000e+000 -7.071068e-001 -7.071068e-001
    outer loop
      vertex  3.500000e+001 -3.400000e+001  0.000000e+000
      vertex  3.500000e+001 -3.500000e+001  1.000000e+000
      vertex -3.400000e+001 -3.400000e+001  0.000000e+000
    endloop
  endfacet
  facet normal  0.000000e+000 -7.071068e-001 -7.071068e-001
    outer loop
      vertex -3.400000e+001 -3.400000e+001  0.000000e+000
      vertex  3.500000e+001 -3.500000e+001  1.000000e+000
      vertex -3.400000e+001 -3.500000e+001  1.000000e+000
    endloop
  endfacet
  facet normal  0.000000e+000 -7.071068e-001 -7.071068e-001
    outer loop
      vertex -3.400000e+001 -3.400000e+001  0.000000e+000
      vertex -3.400000e+001 -3.500000e+001  1.000000e+000
      vertex -3.450000e+001 -3.450000e+001  5.000000e-001
    endloop
  endfacet
  facet normal -7.071068e-001 -7.071068e-001  0.000000e+000
    outer loop
      vertex -3.450000e+001 -3.450000e+001  5.000000e-001
      vertex -3.400000e+001 -3.500000e+001  1.000000e+000
      vertex -3.500000e+001 -3.400000e+001  1.000000e+000
    endloop
  endfacet
  facet normal -7.071068e-001 -7.071068e-001  0.000000e+000
    outer loop
      vertex -3.500000e+001 -3.400000e+001  1.000000e+000
      vertex -3.400000e+001 -3.500000e+001  1.000000e+000
      vertex -3.500000e+001 -3.400000e+001  6.900000e+001
    endloop
  endfacet
  facet normal -7.071068e-001 -7.071068e-001  0.000000e+000
    outer loop
      vertex -3.500000e+001 -3.400000e+001  6.900000e+001
      vertex -3.400000e+001 -3.500000e+001  1.000000e+000
      vertex -3.400000e+001 -3.500000e+001  6.900000e+001
    endloop
  endfacet
  facet normal -7.071068e-001 -7.071068e-001  0.000000e+000
    outer loop
      vertex -3.500000e+001 -3.400000e+001  6.900000e+001
      vertex -3.400000e+001 -3.500000e+001  6.900000e+001
      vertex -3.450000e+001 -3.450000e+001  6.950000e+001
    endloop
  endfacet
  facet normal  0.000000e+000 -1.000000e+000  0.000000e+000
    outer loop
      vertex -3.396551e+000 -3.500000e+001  2.680000e+001
      vertex -3.400000e+001 -3.500000e+001  1.000000e+000
      vertex  3.396551e+000 -3.500000e+001  2.680000e+001
    endloop
  endfacet
  facet normal  0.000000e+000 -1.000000e+000  0.000000e+000
    outer loop
      vertex  3.396551e+000 -3.500000e+001  2.680000e+001
      vertex -3.400000e+001 -3.500000e+001  1.000000e+000
      vertex  3.500000e+001 -3.500000e+001  1.000000e+000
    endloop
  endfacet
  facet normal  0.000000e+000 -1.000000e+000  0.000000e+000
    outer loop
      vertex  3.396551e+000 -3.500000e+001  2.680000e+001
      vertex  3.500000e+001 -3.500000e+001  1.000000e+000
      vertex  8.200000e+000 -3.500000e+001  3.160345e+001
    endloop
  endfacet
  facet normal  0.000000e+000 -1.000000e+000  0.000000e+000
    outer loop
      vertex  3.396551e+000 -3.500000e+001  4.320000e+001
      vertex  3.500000e+001 -3.500000e+001  6.900000e+001
      vertex -3.396551e+000 -3.500000e+001  4.320000e+001
    endloop
  endfacet
  facet normal  0.000000e+000 -1.000000e+000  0.000000e+000
    outer loop
      vertex -3.396551e+000 -3.500000e+001  4.320000e+001
      vertex  3.500000e+001 -3.500000e+001  6.900000e+001
      vertex -3.400000e+001 -3.500000e+001  6.900000e+001
    endloop
  endfacet
  facet normal  0.000000e+000 -1.000000e+000  0.000000e+000
    outer loop
      vertex -3.396551e+000 -3.500000e+001  4.320000e+001
      vertex -3.400000e+001 -3.500000e+001  6.900000e+001
      vertex -8.200000e+000 -3.500000e+001  3.839655e+001
    endloop
  endfacet
  facet normal  0.000000e+000 -1.000000e+000  0.000000e+000
    outer loop
      vertex  8.200000e+000 -3.500000e+001  3.160345e+001
      vertex  3.500000e+001 -3.500000e+001  1.000000e+000
      vertex  8.200000e+000 -3.500000e+001  3.839655e+001
    endloop
  endfacet
  facet normal  0.000000e+000 -1.000000e+000  0.000000e+000
    outer loop
      vertex  8.200000e+000 -3.500000e+001  3.839655e+001
      vertex  3.500000e+001 -3.500000e+001  1.000000e+000
      vertex  3.500000e+001 -3.500000e+001  6.900000e+001
    endloop
  endfacet
  facet normal  0.000000e+000 -1.000000e+000  0.000000e+000
    outer loop
      vertex  8.200000e+000 -3.500000e+001  3.839655e+001
      vertex  3.500000e+001 -3.500000e+001  6.900000e+001
      vertex  3.396551e+000 -3.500000e+001  4.320000e+001
    endloop
  endfacet
  facet normal  0.000000e+000 -1.000000e+000  0.000000e+000
    outer loop
      vertex -8.200000e+000 -3.500000e+001  3.839655e+001
      vertex -3.400000e+001 -3.500000e+001  6.900000e+001
      vertex -8.200000e+000 -3.500000e+001  3.160345e+001
    endloop
  endfacet
  facet normal  0.000000e+000 -1.000000e+000  0.000000e+000
    outer loop
      vertex -8.200000e+000 -3.500000e+001  3.160345e+001
      vertex -3.400000e+001 -3.500000e+001  6.900000e+001
      vertex -3.400000e+001 -3.500000e+001  1.000000e+000
    endloop
  endfacet
  facet normal  0.000000e+000 -1.000000e+000  0.000000e+000
    outer loop
      vertex -8.200000e+000 -3.500000e+001  3.160345e+001
      vertex -3.400000e+001 -3.500000e+001  1.000000e+000
      vertex -3.396551e+000 -3.500000e+001  2.680000e+001
    endloop
  endfacet
  facet normal  0.000000e+000 -7.071068e-001  7.071068e-001
    outer loop
      vertex  3.500000e+001 -3.500000e+001  6.900000e+001
      vertex  3.500000e+001 -3.400000e+001  7.000000e+001
      vertex -3.400000e+001 -3.500000e+001  6.900000e+001
    endloop
  endfacet
  facet normal  0.000000e+000 -7.071068e-001  7.071068e-001
    outer loop
      vertex -3.400000e+001 -3.500000e+001  6.900000e+001
      vertex  3.500000e+001 -3.400000e+001  7.000000e+001
      vertex -3.400000e+001 -3.400000e+001  7.000000e+001
    endloop
  endfacet
  facet normal  0.000000e+000 -7.071068e-001  7.071068e-001
    outer loop
      vertex -3.400000e+001 -3.500000e+001  6.900000e+001
      vertex -3.400000e+001 -3.400000e+001  7.000000e+001
      vertex -3.450000e+001 -3.450000e+001  6.950000e+001
    endloop
  endfacet
  facet normal  0.000000e+000  0.000000e+000  1.000000e+000
    outer loop
      vertex  3.500000e+001  3.400000e+001  7.000000e+001
      vertex  8.000000e+000  3.313709e+000  7.000000e+001
      vertex  3.500000e+001 -3.400000e+001  7.000000e+001
    endloop
  endfacet
  facet normal  0.000000e+000  0.000000e+000  1.000000e+000
    outer loop
      vertex  3.500000e+001 -3.400000e+001  7.000000e+001
      vertex  8.000000e+000  3.313709e+000  7.000000e+001
      vertex  8.000000e+000 -3.313709e+000  7.000000e+001
    endloop
  endfacet
  facet normal  0.000000e+000  0.000000e+000  1.000000e+000
    outer loop
      vertex  3.500000e+001 -3.400000e+001  7.000000e+001
      vertex  8.000000e+000 -3.313709e+000  7.000000e+001
      vertex  3.313709e+000 -8.000000e+000  7.000000e+001
    endloop
  endfacet
  facet normal  0.000000e+000  0.000000e+000  1.000000e+000
    outer loop
      vertex -3.400000e+001 -3.400000e+001  7.000000e+001
      vertex -8.000000e+000 -3.313709e+000  7.000000e+001
      vertex -3.400000e+001  3.400000e+001  7.000000e+001
    endloop
  endfacet
  facet normal  0.000000e+000  0.000000e+000  1.000000e+000
    outer loop
      vertex -3.400000e+001  3.400000e+001  7.000000e+001
      vertex -8.000000e+000 -3.313709e+000  7.000000e+001
      vertex -8.000000e+000  3.313709e+000  7.000000e+001
    endloop
  endfacet
  facet normal  0.000000e+000  0.000000e+000  1.000000e+000
    outer loop
      vertex -3.400000e+001  3.400000e+001  7.000000e+001
      vertex -8.000000e+000  3.313709e+000  7.000000e+001
      vertex -3.313709e+000  8.000000e+000  7.000000e+001
    endloop
  endfacet
  facet normal  0.000000e+000  0.000000e+000  1.000000e+000
    outer loop
      vertex  3.500000e+001 -3.400000e+001  7.000000e+001
      vertex  3.313709e+000 -8.000000e+000  7.000000e+001
      vertex -3.400000e+001 -3.400000e+001  7.000000e+001
    endloop
  endfacet
  facet normal  0.000000e+000  0.000000e+000  1.000000e+000
    outer loop
      vertex -3.400000e+001 -3.400000e+001  7.000000e+001
      vertex  3.313709e+000 -8.000000e+000  7.000000e+001
      vertex -3.313709e+000 -8.000000e+000  7.000000e+001
    endloop
  endfacet
  facet normal  0.000000e+000  0.000000e+000  1.000000e+000
    outer loop
      vertex -3.400000e+001 -3.400000e+001  7.000000e+001
      vertex -3.313709e+000 -8.000000e+000  7.000000e+001
      vertex -8.000000e+000 -3.313709e+000  7.000000e+001
    endloop
  endfacet
  facet normal  0.000000e+000  0.000000e+000  1.000000e+000
    outer loop
      vertex -3.400000e+001  3.400000e+001  7.000000e+001
      vertex -3.313709e+000  8.000000e+000  7.000000e+001
      vertex  3.500000e+001  3.400000e+001  7.000000e+001
    endloop
  endfacet
  facet normal  0.000000e+000  0.000000e+000  1.000000e+000
    outer loop
      vertex  3.500000e+001  3.400000e+001  7.000000e+001
      vertex -3.313709e+000  8.000000e+000  7.000000e+001
      vertex  3.313709e+000  8.000000e+000  7.000000e+001
    endloop
  endfacet
  facet normal  0.000000e+000  0.000000e+000  1.000000e+000
    outer loop
      vertex  3.500000e+001  3.400000e+001  7.000000e+001
      vertex  3.313709e+000  8.000000e+000  7.000000e+001
      vertex  8.000000e+000  3.313709e+000  7.000000e+001
    endloop
  endfacet
  facet normal  0.000000e+000  1.000000e+000  0.000000e+000
    outer loop
      vertex -3.200000e+001 -8.200000e+000  3.160345e+001
      vertex -3.500000e+001 -8.200000e+000  3.160345e+001
      vertex -3.200000e+001 -8.200000e+000  3.839655e+001
    endloop
  endfacet
  facet normal  0.000000e+000  1.000000e+000  0.000000e+000
    outer loop
      vertex -3.200000e+001 -8.200000e+000  3.839655e+001
      vertex -3.500000e+001 -8.200000e+000  3.160345e+001
      vertex -3.500000e+001 -8.200000e+000  3.839655e+001
    endloop
  endfacet
  facet normal  0.000000e+000  7.071068e-001  7.071067e-001
    outer loop
      vertex -3.500000e+001 -8.200000e+000  3.160345e+001
      vertex -3.200000e+001 -8.200000e+000  3.160345e+001
      vertex -3.500000e+001 -3.396551e+000  2.680000e+001
    endloop
  endfacet
  facet normal  0.000000e+000  7.071068e-001  7.071067e-001
    outer loop
      vertex -3.500000e+001 -3.396551e+000  2.680000e+001
      vertex -3.200000e+001 -8.200000e+000  3.160345e+001
      vertex -3.200000e+001 -3.396551e+000  2.680000e+001
    endloop
  endfacet
  facet normal  0.000000e+000  0.000000e+000  1.000000e+000
    outer loop
      vertex -3.500000e+001 -3.396551e+000  2.680000e+001
      vertex -3.200000e+001 -3.396551e+000  2.680000e+001
      vertex -3.500000e+001  3.396551e+000  2.680000e+001
    endloop
  endfacet
  facet normal  0.000000e+000  0.000000e+000  1.000000e+000
    outer loop
      vertex -3.500000e+001  3.396551e+000  2.680000e+001
      vertex -3.200000e+001 -3.396551e+000  2.680000e+001
      vertex -3.200000e+001  3.396551e+000  2.680000e+001
    endloop
  endfacet
  facet normal  0.000000e+000 -7.071068e-001  7.071067e-001
    outer loop
      vertex -3.500000e+001  3.396551e+000  2.680000e+001
      vertex -3.200000e+001  3.396551e+000  2.680000e+001
      vertex -3.500000e+001  8.200000e+000  3.160345e+001
    endloop
  endfacet
  facet normal  0.000000e+000 -7.071068e-001  7.071067e-001
    outer loop
      vertex -3.500000e+001  8.200000e+000  3.160345e+001
      vertex -3.200000e+001  3.396551e+000  2.680000e+001
      vertex -3.200000e+001  8.200000e+000  3.160345e+001
    endloop
  endfacet
  facet normal  0.000000e+000 -1.000000e+000  0.000000e+000
    outer loop
      vertex -3.500000e+001  8.200000e+000  3.160345e+001
      vertex -3.200000e+001  8.200000e+000  3.160345e+001
      vertex -3.500000e+001  8.200000e+000  3.839655e+001
    endloop
  endfacet
  facet normal  0.000000e+000 -1.000000e+000  0.000000e+000
    outer loop
      vertex -3.500000e+001  8.200000e+000  3.839655e+001
      vertex -3.200000e+001  8.200000e+000  3.160345e+001
      vertex -3.200000e+001  8.200000e+000  3.839655e+001
    endloop
  endfacet
  facet normal  0.000000e+000 -7.071067e-001 -7.071068e-001
    outer loop
      vertex -3.500000e+001  8.200000e+000  3.839655e+001
      vertex -3.200000e+001  8.200000e+000  3.839655e+001
      vertex -3.500000e+001  3.396551e+000  4.320000e+001
    endloop
  endfacet
  facet normal  0.000000e+000 -7.071067e-001 -7.071068e-001
    outer loop
      vertex -3.500000e+001  3.396551e+000  4.320000e+001
      vertex -3.200000e+001  8.200000e+000  3.839655e+001
      vertex -3.200000e+001  3.396551e+000  4.320000e+001
    endloop
  endfacet
  facet normal  0.000000e+000  0.000000e+000 -1.000000e+000
    outer loop
      vertex -3.200000e+001 -3.396551e+000  4.320000e+001
      vertex -3.500000e+001 -3.396551e+000  4.320000e+001
      vertex -3.200000e+001  3.396551e+000  4.320000e+001
    endloop
  endfacet
  facet normal  0.000000e+000  0.000000e+000 -1.000000e+000
    outer loop
      vertex -3.200000e+001  3.396551e+000  4.320000e+001
      vertex -3.500000e+001 -3.396551e+000  4.320000e+001
      vertex -3.500000e+001  3.396551e+000  4.320000e+001
    endloop
  endfacet
  facet normal  0.000000e+000  7.071067e-001 -7.071068e-001
    outer loop
      vertex -3.500000e+001 -3.396551e+000  4.320000e+001
      vertex -3.200000e+001 -3.396551e+000  4.320000e+001
      vertex -3.500000e+001 -8.200000e+000  3.839655e+001
    endloop
  endfacet
  facet normal  0.000000e+000  7.071067e-001 -7.071068e-001
    outer loop
      vertex -3.500000e+001 -8.200000e+000  3.839655e+001
      vertex -3.200000e+001 -3.396551e+000  4.320000e+001
      vertex -3.200000e+001 -8.200000e+000  3.839655e+001
    endloop
  endfacet
  facet normal -1.000000e+000  0.000000e+000  0.000000e+000
    outer loop
      vertex -3.200000e+001 -3.396551e+000  4.320000e+001
      vertex -3.200000e+001  3.396551e+000  4.320000e+001
      vertex -3.200000e+001 -8.200000e+000  3.839655e+001
    endloop
  endfacet
  facet normal -1.000000e+000  0.000000e+000  0.000000e+000
    outer loop
      vertex -3.200000e+001 -8.200000e+000  3.839655e+001
      vertex -3.200000e+001  3.396551e+000  4.320000e+001
      vertex -3.200000e+001  8.200000e+000  3.839655e+001
    endloop
  endfacet
  facet normal -1.000000e+000  0.000000e+000  0.000000e+000
    outer loop
      vertex -3.200000e+001 -8.200000e+000  3.839655e+001
      vertex -3.200000e+001  8.200000e+000  3.839655e+001
      vertex -3.200000e+001 -8.200000e+000  3.160345e+001
    endloop
  endfacet
  facet normal -1.000000e+000  0.000000e+000  0.000000e+000
    outer loop
      vertex -3.200000e+001 -8.200000e+000  3.160345e+001
      vertex -3.200000e+001  8.200000e+000  3.839655e+001
      vertex -3.200000e+001  8.200000e+000  3.160345e+001
    endloop
  endfacet
  facet normal -1.000000e+000  0.000000e+000  0.000000e+000
    outer loop
      vertex -3.200000e+001 -8.200000e+000  3.160345e+001
      vertex -3.200000e+001  8.200000e+000  3.160345e+001
      vertex -3.200000e+001 -3.396551e+000  2.680000e+001
    endloop
  endfacet
  facet normal -1.000000e+000  0.000000e+000  0.000000e+000
    outer loop
      vertex -3.200000e+001 -3.396551e+000  2.680000e+001
      vertex -3.200000e+001  8.200000e+000  3.160345e+001
      vertex -3.200000e+001  3.396551e+000  2.680000e+001
    endloop
  endfacet
  facet normal -1.000000e+000  0.000000e+000  0.000000e+000
    outer loop
      vertex  8.200000e+000 -3.200000e+001  3.160345e+001
      vertex  8.200000e+000 -3.500000e+001  3.160345e+001
      vertex  8.200000e+000 -3.200000e+001  3.839655e+001
    endloop
  endfacet
  facet normal -1.000000e+000  0.000000e+000  0.000000e+000
    outer loop
      vertex  8.200000e+000 -3.200000e+001  3.839655e+001
      vertex  8.200000e+000 -3.500000e+001  3.160345e+001
      vertex  8.200000e+000 -3.500000e+001  3.839655e+001
    endloop
  endfacet
  facet normal -7.071068e-001  0.000000e+000  7.071067e-001
    outer loop
      vertex  3.396551e+000 -3.200000e+001  2.680000e+001
      vertex  3.396551e+000 -3.500000e+001  2.680000e+001
      vertex  8.200000e+000 -3.200000e+001  3.160345e+001
    endloop
  endfacet
  facet normal -7.071068e-001  0.000000e+000  7.071067e-001
    outer loop
      vertex  8.200000e+000 -3.200000e+001  3.160345e+001
      vertex  3.396551e+000 -3.500000e+001  2.680000e+001
      vertex  8.200000e+000 -3.500000e+001  3.160345e+001
    endloop
  endfacet
  facet normal  0.000000e+000  0.000000e+000  1.000000e+000
    outer loop
      vertex -3.396551e+000 -3.500000e+001  2.680000e+001
      vertex  3.396551e+000 -3.500000e+001  2.680000e+001
      vertex -3.396551e+000 -3.200000e+001  2.680000e+001
    endloop
  endfacet
  facet normal  0.000000e+000  0.000000e+000  1.000000e+000
    outer loop
      vertex -3.396551e+000 -3.200000e+001  2.680000e+001
      vertex  3.396551e+000 -3.500000e+001  2.680000e+001
      vertex  3.396551e+000 -3.200000e+001  2.680000e+001
    endloop
  endfacet
  facet normal  7.071068e-001  0.000000e+000  7.071067e-001
    outer loop
      vertex -8.200000e+000 -3.200000e+001  3.160345e+001
      vertex -8.200000e+000 -3.500000e+001  3.160345e+001
      vertex -3.396551e+000 -3.200000e+001  2.680000e+001
    endloop
  endfacet
  facet normal  7.071068e-001  0.000000e+000  7.071067e-001
    outer loop
      vertex -3.396551e+000 -3.200000e+001  2.680000e+001
      vertex -8.200000e+000 -3.500000e+001  3.160345e+001
      vertex -3.396551e+000 -3.500000e+001  2.680000e+001
    endloop
  endfacet
  facet normal  1.000000e+000  0.000000e+000  0.000000e+000
    outer loop
      vertex -8.200000e+000 -3.500000e+001  3.160345e+001
      vertex -8.200000e+000 -3.200000e+001  3.160345e+001
      vertex -8.200000e+000 -3.500000e+001  3.839655e+001
    endloop
  endfacet
  facet normal  1.000000e+000  0.000000e+000  0.000000e+000
    outer loop
      vertex -8.200000e+000 -3.500000e+001  3.839655e+001
      vertex -8.200000e+000 -3.200000e+001  3.160345e+001
      vertex -8.200000e+000 -3.200000e+001  3.839655e+001
    endloop
  endfacet
  facet normal  7.071067e-001  0.000000e+000 -7.071068e-001
    outer loop
      vertex -3.396551e+000 -3.200000e+001  4.320000e+001
      vertex -3.396551e+000 -3.500000e+001  4.320000e+001
      vertex -8.200000e+000 -3.200000e+001  3.839655e+001
    endloop
  endfacet
  facet normal  7.071067e-001  0.000000e+000 -7.071068e-001
    outer loop
      vertex -8.200000e+000 -3.200000e+001  3.839655e+001
      vertex -3.396551e+000 -3.500000e+001  4.320000e+001
      vertex -8.200000e+000 -3.500000e+001  3.839655e+001
    endloop
  endfacet
  facet normal  0.000000e+000  0.000000e+000 -1.000000e+000
    outer loop
      vertex  3.396551e+000 -3.500000e+001  4.320000e+001
      vertex -3.396551e+000 -3.500000e+001  4.320000e+001
      vertex  3.396551e+000 -3.200000e+001  4.320000e+001
    endloop
  endfacet
  facet normal  0.000000e+000  0.000000e+000 -1.000000e+000
    outer loop
      vertex  3.396551e+000 -3.200000e+001  4.320000e+001
      vertex -3.396551e+000 -3.500000e+001  4.320000e+001
      vertex -3.396551e+000 -3.200000e+001  4.320000e+001
    endloop
  endfacet
  facet normal -7.071067e-001  0.000000e+000 -7.071068e-001
    outer loop
      vertex  3.396551e+000 -3.500000e+001  4.320000e+001
      vertex  3.396551e+000 -3.200000e+001  4.320000e+001
      vertex  8.200000e+000 -3.500000e+001  3.839655e+001
    endloop
  endfacet
  facet normal -7.071067e-001  0.000000e+000 -7.071068e-001
    outer loop
      vertex  8.200000e+000 -3.500000e+001  3.839655e+001
      vertex  3.396551e+000 -3.200000e+001  4.320000e+001
      vertex  8.200000e+000 -3.200000e+001  3.839655e+001
    endloop
  endfacet
  facet normal  0.000000e+000 -1.000000e+000  0.000000e+000
    outer loop
      vertex  3.396551e+000 -3.200000e+001  4.320000e+001
      vertex -3.396551e+000 -3.200000e+001  4.320000e+001
      vertex  8.200000e+000 -3.200000e+001  3.839655e+001
    endloop
  endfacet
  facet normal  0.000000e+000 -1.000000e+000  0.000000e+000
    outer loop
      vertex  8.200000e+000 -3.200000e+001  3.839655e+001
      vertex -3.396551e+000 -3.200000e+001  4.320000e+001
      vertex -8.200000e+000 -3.200000e+001  3.839655e+001
    endloop
  endfacet
  facet normal  0.000000e+000 -1.000000e+000  0.000000e+000
    outer loop
      vertex  8.200000e+000 -3.200000e+001  3.839655e+001
      vertex -8.200000e+000 -3.200000e+001  3.839655e+001
      vertex  8.200000e+000 -3.200000e+001  3.160345e+001
    endloop
  endfacet
  facet normal  0.000000e+000 -1.000000e+000  0.000000e+000
    outer loop
      vertex  8.200000e+000 -3.200000e+001  3.160345e+001
      vertex -8.200000e+000 -3.200000e+001  3.839655e+001
      vertex -8.200000e+000 -3.200000e+001  3.160345e+001
    endloop
  endfacet
  facet normal  0.000000e+000 -1.000000e+000  0.000000e+000
    outer loop
      vertex  8.200000e+000 -3.200000e+001  3.160345e+001
      vertex -8.200000e+000 -3.200000e+001  3.160345e+001
      vertex  3.396551e+000 -3.200000e+001  2.680000e+001
    endloop
  endfacet
  facet normal  0.000000e+000 -1.000000e+000  0.000000e+000
    outer loop
      vertex  3.396551e+000 -3.200000e+001  2.680000e+001
      vertex -8.200000e+000 -3.200000e+001  3.160345e+001
      vertex -3.396551e+000 -3.200000e+001  2.680000e+001
    endloop
  endfacet
  facet normal -1.000000e+000  0.000000e+000  0.000000e+000
    outer loop
      vertex -8.000000e+000  3.780000e+001  3.168629e+001
      vertex -8.000000e+000  3.500000e+001  3.168629e+001
      vertex -8.000000e+000  3.780000e+001  3.831371e+001
    endloop
  endfacet
  facet normal -1.000000e+000  0.000000e+000  0.000000e+000
    outer loop
      vertex -8.000000e+000  3.780000e+001  3.831371e+001
      vertex -8.000000e+000  3.500000e+001  3.168629e+001
      vertex -8.000000e+000  3.500000e+001  3.831371e+001
    endloop
  endfacet
  facet normal -7.071067e-001  0.000000e+000 -7.071068e-001
    outer loop
      vertex -3.313709e+000  3.780000e+001  2.700000e+001
      vertex -3.313709e+000  3.500000e+001  2.700000e+001
      vertex -8.000000e+000  3.780000e+001  3.168629e+001
    endloop
  endfacet
  facet normal -7.071067e-001  0.000000e+000 -7.071068e-001
    outer loop
      vertex -8.000000e+000  3.780000e+001  3.168629e+001
      vertex -3.313709e+000  3.500000e+001  2.700000e+001
      vertex -8.000000e+000  3.500000e+001  3.168629e+001
    endloop
  endfacet
  facet normal  0.000000e+000  0.000000e+000 -1.000000e+000
    outer loop
      vertex -3.313709e+000  3.500000e+001  2.700000e+001
      vertex -3.313709e+000  3.780000e+001  2.700000e+001
      vertex  3.313709e+000  3.500000e+001  2.700000e+001
    endloop
  endfacet
  facet normal  0.000000e+000  0.000000e+000 -1.000000e+000
    outer loop
      vertex  3.313709e+000  3.500000e+001  2.700000e+001
      vertex -3.313709e+000  3.780000e+001  2.700000e+001
      vertex  3.313709e+000  3.780000e+001  2.700000e+001
    endloop
  endfacet
  facet normal  7.071067e-001  0.000000e+000 -7.071068e-001
    outer loop
      vertex  8.000000e+000  3.780000e+001  3.168629e+001
      vertex  8.000000e+000  3.500000e+001  3.168629e+001
      vertex  3.313709e+000  3.780000e+001  2.700000e+001
    endloop
  endfacet
  facet normal  7.071067e-001  0.000000e+000 -7.071068e-001
    outer loop
      vertex  3.313709e+000  3.780000e+001  2.700000e+001
      vertex  8.000000e+000  3.500000e+001  3.168629e+001
      vertex  3.313709e+000  3.500000e+001  2.700000e+001
    endloop
  endfacet
  facet normal  1.000000e+000  0.000000e+000  0.000000e+000
    outer loop
      vertex  8.000000e+000  3.500000e+001  3.168629e+001
      vertex  8.000000e+000  3.780000e+001  3.168629e+001
      vertex  8.000000e+000  3.500000e+001  3.831371e+001
    endloop
  endfacet
  facet normal  1.000000e+000  0.000000e+000  0.000000e+000
    outer loop
      vertex  8.000000e+000  3.500000e+001  3.831371e+001
      vertex  8.000000e+000  3.780000e+001  3.168629e+001
      vertex  8.000000e+000  3.780000e+001  3.831371e+001
    endloop
  endfacet
  facet normal  7.071067e-001  0.000000e+000  7.071068e-001
    outer loop
      vertex  3.313709e+000  3.780000e+001  4.300000e+001
      vertex  3.313709e+000  3.500000e+001  4.300000e+001
      vertex  8.000000e+000  3.780000e+001  3.831371e+001
    endloop
  endfacet
  facet normal  7.071067e-001  0.000000e+000  7.071068e-001
    outer loop
      vertex  8.000000e+000  3.780000e+001  3.831371e+001
      vertex  3.313709e+000  3.500000e+001  4.300000e+001
      vertex  8.000000e+000  3.500000e+001  3.831371e+001
    endloop
  endfacet
  facet normal  0.000000e+000  0.000000e+000  1.000000e+000
    outer loop
      vertex  3.313709e+000  3.500000e+001  4.300000e+001
      vertex  3.313709e+000  3.780000e+001  4.300000e+001
      vertex -3.313709e+000  3.500000e+001  4.300000e+001
    endloop
  endfacet
  facet normal  0.000000e+000  0.000000e+000  1.000000e+000
    outer loop
      vertex -3.313709e+000  3.500000e+001  4.300000e+001
      vertex  3.313709e+000  3.780000e+001  4.300000e+001
      vertex -3.313709e+000  3.780000e+001  4.300000e+001
    endloop
  endfacet
  facet normal -7.071067e-001  0.000000e+000  7.071068e-001
    outer loop
      vertex -3.313709e+000  3.500000e+001  4.300000e+001
      vertex -3.313709e+000  3.780000e+001  4.300000e+001
      vertex -8.000000e+000  3.500000e+001  3.831371e+001
    endloop
  endfacet
  facet normal -7.071067e-001  0.000000e+000  7.071068e-001
    outer loop
      vertex -8.000000e+000  3.500000e+001  3.831371e+001
      vertex -3.313709e+000  3.780000e+001  4.300000e+001
      vertex -8.000000e+000  3.780000e+001  3.831371e+001
    endloop
  endfacet
  facet normal  0.000000e+000  1.000000e+000  0.000000e+000
    outer loop
      vertex -3.313709e+000  3.780000e+001  4.300000e+001
      vertex  3.313709e+000  3.780000e+001  4.300000e+001
      vertex -8.000000e+000  3.780000e+001  3.831371e+001
    endloop
  endfacet
  facet normal  0.000000e+000  1.000000e+000  0.000000e+000
    outer loop
      vertex -8.000000e+000  3.780000e+001  3.831371e+001
      vertex  3.313709e+000  3.780000e+001  4.300000e+001
      vertex  8.000000e+000  3.780000e+001  3.831371e+001
    endloop
  endfacet
  facet normal  0.000000e+000  1.000000e+000  0.000000e+000
    outer loop
      vertex -8.000000e+000  3.780000e+001  3.831371e+001
      vertex  8.000000e+000  3.780000e+001  3.831371e+001
      vertex -8.000000e+000  3.780000e+001  3.168629e+001
    endloop
  endfacet
  facet normal  0.000000e+000  1.000000e+000  0.000000e+000
    outer loop
      vertex -8.000000e+000  3.780000e+001  3.168629e+001
      vertex  8.000000e+000  3.780000e+001  3.831371e+001
      vertex  8.000000e+000  3.780000e+001  3.168629e+001
    endloop
  endfacet
  facet normal  0.000000e+000  1.000000e+000  0.000000e+000
    outer loop
      vertex -8.000000e+000  3.780000e+001  3.168629e+001
      vertex  8.000000e+000  3.780000e+001  3.168629e+001
      vertex -3.313709e+000  3.780000e+001  2.700000e+001
    endloop
  endfacet
  facet normal  0.000000e+000  1.000000e+000  0.000000e+000
    outer loop
      vertex -3.313709e+000  3.780000e+001  2.700000e+001
      vertex  8.000000e+000  3.780000e+001  3.168629e+001
      vertex  3.313709e+000  3.780000e+001  2.700000e+001
    endloop
  endfacet
  facet normal -7.071068e-001  7.071068e-001  0.000000e+000
    outer loop
      vertex -3.313709e+000  8.000000e+000  7.000000e+001
      vertex -8.000000e+000  3.313709e+000  7.000000e+001
      vertex -3.313709e+000  8.000000e+000  7.280000e+001
    endloop
  endfacet
  facet normal -7.071068e-001  7.071068e-001  0.000000e+000
    outer loop
      vertex -3.313709e+000  8.000000e+000  7.280000e+001
      vertex -8.000000e+000  3.313709e+000  7.000000e+001
      vertex -8.000000e+000  3.313709e+000  7.280000e+001
    endloop
  endfacet
  facet normal -1.000000e+000  0.000000e+000  0.000000e+000
    outer loop
      vertex -8.000000e+000  3.313709e+000  7.000000e+001
      vertex -8.000000e+000 -3.313709e+000  7.000000e+001
      vertex -8.000000e+000  3.313709e+000  7.280000e+001
    endloop
  endfacet
  facet normal -1.000000e+000  0.000000e+000  0.000000e+000
    outer loop
      vertex -8.000000e+000  3.313709e+000  7.280000e+001
      vertex -8.000000e+000 -3.313709e+000  7.000000e+001
      vertex -8.000000e+000 -3.313709e+000  7.280000e+001
    endloop
  endfacet
  facet normal -7.071068e-001 -7.071068e-001  0.000000e+000
    outer loop
      vertex -8.000000e+000 -3.313709e+000  7.000000e+001
      vertex -3.313709e+000 -8.000000e+000  7.000000e+001
      vertex -8.000000e+000 -3.313709e+000  7.280000e+001
    endloop
  endfacet
  facet normal -7.071068e-001 -7.071068e-001  0.000000e+000
    outer loop
      vertex -8.000000e+000 -3.313709e+000  7.280000e+001
      vertex -3.313709e+000 -8.000000e+000  7.000000e+001
      vertex -3.313709e+000 -8.000000e+000  7.280000e+001
    endloop
  endfacet
  facet normal  0.000000e+000 -1.000000e+000  0.000000e+000
    outer loop
      vertex -3.313709e+000 -8.000000e+000  7.000000e+001
      vertex  3.313709e+000 -8.000000e+000  7.000000e+001
      vertex -3.313709e+000 -8.000000e+000  7.280000e+001
    endloop
  endfacet
  facet normal  0.000000e+000 -1.000000e+000  0.000000e+000
    outer loop
      vertex -3.313709e+000 -8.000000e+000  7.280000e+001
      vertex  3.313709e+000 -8.000000e+000  7.000000e+001
      vertex  3.313709e+000 -8.000000e+000  7.280000e+001
    endloop
  endfacet
  facet normal  7.071068e-001 -7.071068e-001  0.000000e+000
    outer loop
      vertex  3.313709e+000 -8.000000e+000  7.000000e+001
      vertex  8.000000e+000 -3.313709e+000  7.000000e+001
      vertex  3.313709e+000 -8.000000e+000  7.280000e+001
    endloop
  endfacet
  facet normal  7.071068e-001 -7.071068e-001  0.000000e+000
    outer loop
      vertex  3.313709e+000 -8.000000e+000  7.280000e+001
      vertex  8.000000e+000 -3.313709e+000  7.000000e+001
      vertex  8.000000e+000 -3.313709e+000  7.280000e+001
    endloop
  endfacet
  facet normal  1.000000e+000  0.000000e+000  0.000000e+000
    outer loop
      vertex  8.000000e+000 -3.313709e+000  7.000000e+001
      vertex  8.000000e+000  3.313709e+000  7.000000e+001
      vertex  8.000000e+000 -3.313709e+000  7.280000e+001
    endloop
  endfacet
  facet normal  1.000000e+000  0.000000e+000  0.000000e+000
    outer loop
      vertex  8.000000e+000 -3.313709e+000  7.280000e+001
      vertex  8.000000e+000  3.313709e+000  7.000000e+001
      vertex  8.000000e+000  3.313709e+000  7.280000e+001
    endloop
  endfacet
  facet normal  7.071068e-001  7.071068e-001  0.000000e+000
    outer loop
      vertex  8.000000e+000  3.313709e+000  7.000000e+001
      vertex  3.313709e+000  8.000000e+000  7.000000e+001
      vertex  8.000000e+000  3.313709e+000  7.280000e+001
    endloop
  endfacet
  facet normal  7.071068e-001  7.071068e-001  0.000000e+000
    outer loop
      vertex  8.000000e+000  3.313709e+000  7.280000e+001
      vertex  3.313709e+000  8.000000e+000  7.000000e+001
      vertex  3.313709e+000  8.000000e+000  7.280000e+001
    endloop
  endfacet
  facet normal  0.000000e+000  1.000000e+000  0.000000e+000
    outer loop
      vertex  3.313709e+000  8.000000e+000  7.000000e+001
      vertex -3.313709e+000  8.000000e+000  7.000000e+001
      vertex  3.313709e+000  8.000000e+000  7.280000e+001
    endloop
  endfacet
  facet normal  0.000000e+000  1.000000e+000  0.000000e+000
    outer loop
      vertex  3.313709e+000  8.000000e+000  7.280000e+001
      vertex -3.313709e+000  8.000000e+000  7.000000e+001
      vertex -3.313709e+000  8.000000e+000  7.280000e+001
    endloop
  endfacet
  facet normal  0.000000e+000  0.000000e+000  1.000000e+000
    outer loop
      vertex -8.000000e+000  3.313709e+000  7.280000e+001
      vertex -8.000000e+000 -3.313709e+000  7.280000e+001
      vertex -3.313709e+000  8.000000e+000  7.280000e+001
    endloop
  endfacet
  facet normal  0.000000e+000  0.000000e+000  1.000000e+000
    outer loop
      vertex -3.313709e+000  8.000000e+000  7.280000e+001
      vertex -8.000000e+000 -3.313709e+000  7.280000e+001
      vertex -3.313709e+000 -8.000000e+000  7.280000e+001
    endloop
  endfacet
  facet normal  0.000000e+000  0.000000e+000  1.000000e+000
    outer loop
      vertex -3.313709e+000  8.000000e+000  7.280000e+001
      vertex -3.313709e+000 -8.000000e+000  7.280000e+001
      vertex  3.313709e+000  8.000000e+000  7.280000e+001
    endloop
  endfacet
  facet normal  0.000000e+000  0.000000e+000  1.000000e+000
    outer loop
      vertex  3.313709e+000  8.000000e+000  7.280000e+001
      vertex -3.313709e+000 -8.000000e+000  7.280000e+001
      vertex  3.313709e+000 -8.000000e+000  7.280000e+001
    endloop
  endfacet
  facet normal  0.000000e+000  0.000000e+000  1.000000e+000
    outer loop
      vertex  3.313709e+000  8.000000e+000  7.280000e+001
      vertex  3.313709e+000 -8.000000e+000  7.280000e+001
      vertex  8.000000e+000  3.313709e+000  7.280000e+001
    endloop
  endfacet
  facet normal  0.000000e+000  0.000000e+000  1.000000e+000
    outer loop
      vertex  8.000000e+000  3.313709e+000  7.280000e+001
      vertex  3.313709e+000 -8.000000e+000  7.280000e+001
      vertex  8.000000e+000 -3.313709e+000  7.280000e+001
    endloop
  endfacet
  facet normal  0.000000e+000 -1.000000e+000  0.000000e+000
    outer loop
      vertex -3.396551e+000  8.200000e+000  0.000000e+000
      vertex  3.396551e+000  8.200000e+000  0.000000e+000
      vertex -3.396551e+000  8.200000e+000  3.000000e+000
    endloop
  endfacet
  facet normal  0.000000e+000 -1.000000e+000  0.000000e+000
    outer loop
      vertex -3.396551e+000  8.200000e+000  3.000000e+000
      vertex  3.396551e+000  8.200000e+000  0.000000e+000
      vertex  3.396551e+000  8.200000e+000  3.000000e+000
    endloop
  endfacet
  facet normal  7.071068e-001 -7.071068e-001  0.000000e+000
    outer loop
      vertex -8.200000e+000  3.396551e+000  3.000000e+000
      vertex -8.200000e+000  3.396551e+000  0.000000e+000
      vertex -3.396551e+000  8.200000e+000  3.000000e+000
    endloop
  endfacet
  facet normal  7.071068e-001 -7.071068e-001  0.000000e+000
    outer loop
      vertex -3.396551e+000  8.200000e+000  3.000000e+000
      vertex -8.200000e+000  3.396551e+000  0.000000e+000
      vertex -3.396551e+000  8.200000e+000  0.000000e+000
    endloop
  endfacet
  facet normal  1.000000e+000  0.000000e+000  0.000000e+000
    outer loop
      vertex -8.200000e+000 -3.396551e+000  0.000000e+000
      vertex -8.200000e+000  3.396551e+000  0.000000e+000
      vertex -8.200000e+000 -3.396551e+000  3.000000e+000
    endloop
  endfacet
  facet normal  1.000000e+000  0.000000e+000  0.000000e+000
    outer loop
      vertex -8.200000e+000 -3.396551e+000  3.000000e+000
      vertex -8.200000e+000  3.396551e+000  0.000000e+000
      vertex -8.200000e+000  3.396551e+000  3.000000e+000
    endloop
  endfacet
  facet normal  7.071068e-001  7.071068e-001  0.000000e+000
    outer loop
      vertex -8.200000e+000 -3.396551e+000  0.000000e+000
      vertex -8.200000e+000 -3.396551e+000  3.000000e+000
      vertex -3.396551e+000 -8.200000e+000  0.000000e+000
    endloop
  endfacet
  facet normal  7.071068e-001  7.071068e-001  0.000000e+000
    outer loop
      vertex -3.396551e+000 -8.200000e+000  0.000000e+000
      vertex -8.200000e+000 -3.396551e+000  3.000000e+000
      vertex -3.396551e+000 -8.200000e+000  3.000000e+000
    endloop
  endfacet
  facet normal  0.000000e+000  1.000000e+000  0.000000e+000
    outer loop
      vertex  3.396551e+000 -8.200000e+000  0.000000e+000
      vertex -3.396551e+000 -8.200000e+000  0.000000e+000
      vertex  3.396551e+000 -8.200000e+000  3.000000e+000
    endloop
  endfacet
  facet normal  0.000000e+000  1.000000e+000  0.000000e+000
    outer loop
      vertex  3.396551e+000 -8.200000e+000  3.000000e+000
      vertex -3.396551e+000 -8.200000e+000  0.000000e+000
      vertex -3.396551e+000 -8.200000e+000  3.000000e+000
    endloop
  endfacet
  facet normal -7.071068e-001  7.071068e-001  0.000000e+000
    outer loop
      vertex  3.396551e+000 -8.200000e+000  0.000000e+000
      vertex  3.396551e+000 -8.200000e+000  3.000000e+000
      vertex  8.200000e+000 -3.396551e+000  0.000000e+000
    endloop
  endfacet
  facet normal -7.071068e-001  7.071068e-001  0.000000e+000
    outer loop
      vertex  8.200000e+000 -3.396551e+000  0.000000e+000
      vertex  3.396551e+000 -8.200000e+000  3.000000e+000
      vertex  8.200000e+000 -3.396551e+000  3.000000e+000
    endloop
  endfacet
  facet normal -1.000000e+000  0.000000e+000  0.000000e+000
    outer loop
      vertex  8.200000e+000  3.396551e+000  0.000000e+000
      vertex  8.200000e+000 -3.396551e+000  0.000000e+000
      vertex  8.200000e+000  3.396551e+000  3.000000e+000
    endloop
  endfacet
  facet normal -1.000000e+000  0.000000e+000  0.000000e+000
    outer loop
      vertex  8.200000e+000  3.396551e+000  3.000000e+000
      vertex  8.200000e+000 -3.396551e+000  0.000000e+000
      vertex  8.200000e+000 -3.396551e+000  3.000000e+000
    endloop
  endfacet
  facet normal -7.071068e-001 -7.071068e-001  0.000000e+000
    outer loop
      vertex  8.200000e+000  3.396551e+000  0.000000e+000
      vertex  8.200000e+000  3.396551e+000  3.000000e+000
      vertex  3.396551e+000  8.200000e+000  0.000000e+000
    endloop
  endfacet
  facet normal -7.071068e-001 -7.071068e-001  0.000000e+000
    outer loop
      vertex  3.396551e+000  8.200000e+000  0.000000e+000
      vertex  8.200000e+000  3.396551e+000  3.000000e+000
      vertex  3.396551e+000  8.200000e+000  3.000000e+000
    endloop
  endfacet
  facet normal  0.000000e+000  0.000000e+000 -1.000000e+000
    outer loop
      vertex  8.200000e+000  3.396551e+000  3.000000e+000
      vertex  8.200000e+000 -3.396551e+000  3.000000e+000
      vertex  3.396551e+000  8.200000e+000  3.000000e+000
    endloop
  endfacet
  facet normal  0.000000e+000  0.000000e+000 -1.000000e+000
    outer loop
      vertex  3.396551e+000  8.200000e+000  3.000000e+000
      vertex  8.200000e+000 -3.396551e+000  3.000000e+000
      vertex  3.396551e+000 -8.200000e+000  3.000000e+000
    endloop
  endfacet
  facet normal  0.000000e+000  0.000000e+000 -1.000000e+000
    outer loop
      vertex  3.396551e+000  8.200000e+000  3.000000e+000
      vertex  3.396551e+000 -8.200000e+000  3.000000e+000
      vertex -3.396551e+000  8.200000e+000  3.000000e+000
    endloop
  endfacet
  facet normal  0.000000e+000  0.000000e+000 -1.000000e+000
    outer loop
      vertex -3.396551e+000  8.200000e+000  3.000000e+000
      vertex  3.396551e+000 -8.200000e+000  3.000000e+000
      vertex -3.396551e+000 -8.200000e+000  3.000000e+000
    endloop
  endfacet
  facet normal  0.000000e+000  0.000000e+000 -1.000000e+000
    outer loop
      vertex -3.396551e+000  8.200000e+000  3.000000e+000
      vertex -3.396551e+000 -8.200000e+000  3.000000e+000
      vertex -8.200000e+000  3.396551e+000  3.000000e+000
    endloop
  endfacet
  facet normal  0.000000e+000  0.000000e+000 -1.000000e+000
    outer loop
      vertex -8.200000e+000  3.396551e+000  3.000000e+000
      vertex -3.396551e+000 -8.200000e+000  3.000000e+000
      vertex -8.200000e+000 -3.396551e+000  3.000000e+000
    endloop
  endfacet
  facet normal  0.000000e+000  0.000000e+000 -1.000000e+000
    outer loop
      vertex  3.500000e+001  3.100000e+001  6.600000e+001
      vertex  3.500000e+001 -3.100000e+001  6.600000e+001
      vertex -3.100000e+001  3.100000e+001  6.600000e+001
    endloop
  endfacet
  facet normal  0.000000e+000  0.000000e+000 -1.000000e+000
    outer loop
      vertex -3.100000e+001  3.100000e+001  6.600000e+001
      vertex  3.500000e+001 -3.100000e+001  6.600000e+001
      vertex -3.100000e+001 -3.100000e+001  6.600000e+001
    endloop
  endfacet
  facet normal  0.000000e+000 -1.000000e+000  0.000000e+000
    outer loop
      vertex -3.100000e+001  3.100000e+001  6.600000e+001
      vertex -3.100000e+001  3.100000e+001  4.000000e+000
      vertex  3.500000e+001  3.100000e+001  6.600000e+001
    endloop
  endfacet
  facet normal  0.000000e+000 -1.000000e+000  0.000000e+000
    outer loop
      vertex  3.500000e+001  3.100000e+001  6.600000e+001
      vertex -3.100000e+001  3.100000e+001  4.000000e+000
      vertex  3.500000e+001  3.100000e+001  4.000000e+000
    endloop
  endfacet
  facet normal  0.000000e+000  0.000000e+000  1.000000e+000
    outer loop
      vertex  3.500000e+001 -3.100000e+001  4.000000e+000
      vertex  3.500000e+001  3.100000e+001  4.000000e+000
      vertex -3.100000e+001 -3.100000e+001  4.000000e+000
    endloop
  endfacet
  facet normal  0.000000e+000  0.000000e+000  1.000000e+000
    outer loop
      vertex -3.100000e+001 -3.100000e+001  4.000000e+000
      vertex  3.500000e+001  3.100000e+001  4.000000e+000
      vertex -3.100000e+001  3.100000e+001  4.000000e+000
    endloop
  endfacet
  facet normal  0.000000e+000  1.000000e+000  0.000000e+000
    outer loop
      vertex  3.500000e+001 -3.100000e+001  6.600000e+001
      vertex  3.500000e+001 -3.100000e+001  4.000000e+000
      vertex -3.100000e+001 -3.100000e+001  6.600000e+001
    endloop
  endfacet
  facet normal  0.000000e+000  1.000000e+000  0.000000e+000
    outer loop
      vertex -3.100000e+001 -3.100000e+001  6.600000e+001
      vertex  3.500000e+001 -3.100000e+001  4.000000e+000
      vertex -3.100000e+001 -3.100000e+001  4.000000e+000
    endloop
  endfacet
  facet normal  1.000000e+000  0.000000e+000  0.000000e+000
    outer loop
      vertex -3.100000e+001 -3.100000e+001  4.000000e+000
      vertex -3.100000e+001  3.100000e+001  4.000000e+000
      vertex -3.100000e+001 -3.100000e+001  6.600000e+001
    endloop
  endfacet
  facet normal  1.000000e+000  0.000000e+000  0.000000e+000
    outer loop
      vertex -3.100000e+001 -3.100000e+001  6.600000e+001
      vertex -3.100000e+001  3.100000e+001  4.000000e+000
      vertex -3.100000e+001  3.100000e+001  6.600000e+001
    endloop
  endfacet
endsolid CATIA STL
